<?xml version="1.0" encoding="UTF-8" standalone="no"?>
<svg
   version="1.1"
   x="0px"
   y="0px"
   viewBox="0 0 100 100"
   xml:space="preserve"
   id="svg2"
   sodipodi:docname="AddLeft.svg"
   width="100"
   height="100"
   inkscape:version="1.4.2 (f4327f4, 2025-05-13)"
   xmlns:inkscape="http://www.inkscape.org/namespaces/inkscape"
   xmlns:sodipodi="http://sodipodi.sourceforge.net/DTD/sodipodi-0.dtd"
   xmlns="http://www.w3.org/2000/svg"
   xmlns:svg="http://www.w3.org/2000/svg"><defs
     id="defs2" /><sodipodi:namedview
     id="namedview2"
     pagecolor="#1db2e7"
     bordercolor="#000000"
     borderopacity="0.25"
     inkscape:showpageshadow="2"
     inkscape:pageopacity="0.0"
     inkscape:pagecheckerboard="0"
     inkscape:deskcolor="#d1d1d1"
     inkscape:zoom="10.029603"
     inkscape:cx="47.409653"
     inkscape:cy="48.007882"
     inkscape:window-width="3840"
     inkscape:window-height="2054"
     inkscape:window-x="2549"
     inkscape:window-y="-11"
     inkscape:window-maximized="1"
     inkscape:current-layer="svg2" /><path
     id="rect2"
     style="opacity:0.506329;fill:#ffffff;stroke-width:39.4136;stroke-opacity:0.498489"
     transform="scale(-1)"
     d="m -72.579689,-95.218132 h 10.274611 v 89.9337692 h -10.274611 z" /><path
     style="fill:#ffffff;stroke-width:8.86256;stroke-opacity:0.498489;fill-opacity:1"
     d="M 19.920798,68.205013 C 19.608097,68.10503 19.159425,67.908621 18.92375,67.768549 18.688074,67.628476 15.146652,64.156969 11.053924,60.054089 4.1922848,53.175428 3.5888518,52.543668 3.3077526,51.944289 2.7182267,50.687263 2.7032083,49.393334 3.2632207,48.107587 3.5016287,47.56022 4.1517493,46.879256 10.90981,40.098226 c 4.062316,-4.076123 7.565498,-7.535503 7.784848,-7.687511 2.232111,-1.546837 5.304779,-0.662192 6.517061,1.876312 0.348974,0.730748 0.362573,0.800364 0.362573,1.855979 0,1.064249 -0.01123,1.120274 -0.378907,1.890372 -0.361275,0.75669 -0.531781,0.947127 -3.664153,4.09248 -1.806885,1.814373 -3.285246,3.329948 -3.285246,3.367946 0,0.038 7.750806,0.0808 17.224012,0.09512 l 17.224012,0.02604 0.747786,0.359447 c 1.528616,0.734778 2.489206,2.134822 2.574068,3.751661 0.09706,1.84929 -0.751024,3.370783 -2.370074,4.251981 -1.061832,0.577921 -0.359632,0.556878 -18.646073,0.558764 l -16.796949,0.0017 3.346902,3.365038 c 3.681583,3.701535 3.828138,3.892184 4.0814,5.309354 0.469303,2.626056 -1.757834,5.201243 -4.47922,5.179219 -0.364377,-0.0029 -0.918351,-0.08717 -1.231052,-0.187148 z"
     id="path2" /></svg>
