<?xml version="1.0" encoding="UTF-8" standalone="no"?>
<svg
   version="1.1"
   x="0px"
   y="0px"
   viewBox="0 0 100 100"
   xml:space="preserve"
   id="svg2"
   sodipodi:docname="AddRight.svg"
   width="100"
   height="100"
   inkscape:version="1.4.2 (f4327f4, 2025-05-13)"
   xmlns:inkscape="http://www.inkscape.org/namespaces/inkscape"
   xmlns:sodipodi="http://sodipodi.sourceforge.net/DTD/sodipodi-0.dtd"
   xmlns="http://www.w3.org/2000/svg"
   xmlns:svg="http://www.w3.org/2000/svg"><defs
     id="defs2" /><sodipodi:namedview
     id="namedview2"
     pagecolor="#1db2e7"
     bordercolor="#000000"
     borderopacity="0.25"
     inkscape:showpageshadow="2"
     inkscape:pageopacity="0.0"
     inkscape:pagecheckerboard="0"
     inkscape:deskcolor="#d1d1d1"
     inkscape:zoom="10.029603"
     inkscape:cx="47.409653"
     inkscape:cy="48.007882"
     inkscape:window-width="3840"
     inkscape:window-height="2054"
     inkscape:window-x="2549"
     inkscape:window-y="-11"
     inkscape:window-maximized="1"
     inkscape:current-layer="svg2" /><path
     id="rect2"
     style="opacity:0.506329;fill:#ffffff;stroke-width:39.4136;stroke-opacity:0.498489"
     d="M 28.104961,5.1846523 H 38.379573 V 95.118422 H 28.104961 Z" /><path
     style="opacity:1;fill:#f9f9f9;stroke-width:8.86256;stroke-opacity:0.498489"
     d="m 78.684699,68.689658 c -1.496818,-0.294562 -2.902987,-1.53656 -3.397474,-3.000819 -0.397904,-1.178255 -0.235644,-2.68986 0.403315,-3.757284 0.119779,-0.200098 1.690986,-1.845917 3.491572,-3.657375 1.800587,-1.811459 3.273794,-3.325225 3.273794,-3.363926 0,-0.0387 -7.750806,-0.08208 -17.224012,-0.0964 l -17.224012,-0.02604 -0.779869,-0.372378 c -1.817435,-0.867801 -2.81776,-2.69931 -2.546254,-4.661969 0.259497,-1.875847 1.841753,-3.481714 3.736204,-3.791958 0.360077,-0.05897 7.060504,-0.09635 17.334064,-0.0967 l 16.747097,-5.77e-4 -3.35539,-3.365038 c -3.036846,-3.045578 -3.385213,-3.428786 -3.669519,-4.036519 -0.429632,-0.918382 -0.568684,-1.78383 -0.423133,-2.633554 0.534768,-3.121955 4.03239,-4.799607 6.677641,-3.202964 0.339937,0.205181 3.078418,2.879553 7.93356,7.747829 7.298821,7.318568 7.419692,7.44615 7.751908,8.182277 0.28509,0.631708 0.343817,0.889398 0.378324,1.66006 0.05073,1.132885 -0.191304,1.953598 -0.826275,2.801867 -0.235975,0.315242 -3.698286,3.829566 -7.694026,7.809607 -6.701067,6.674743 -7.312448,7.257144 -7.876519,7.503168 -0.992941,0.433079 -1.79426,0.539103 -2.710996,0.358697 z"
     id="path2" /></svg>
