<?xml version="1.0" encoding="UTF-8" standalone="no"?>
<svg
   width="20"
   height="20"
   viewBox="0 0 20 20"
   fill="none"
   version="1.1"
   id="svg12"
   sodipodi:docname="AddSpline.svg"
   inkscape:version="1.2.2 (732a01da63, 2022-12-09)"
   xmlns:inkscape="http://www.inkscape.org/namespaces/inkscape"
   xmlns:sodipodi="http://sodipodi.sourceforge.net/DTD/sodipodi-0.dtd"
   xmlns="http://www.w3.org/2000/svg"
   xmlns:svg="http://www.w3.org/2000/svg">
  <defs
     id="defs16" />
  <sodipodi:namedview
     id="namedview14"
     pagecolor="#862828"
     bordercolor="#6d96b1"
     borderopacity="0.24705882"
     inkscape:showpageshadow="2"
     inkscape:pageopacity="0"
     inkscape:pagecheckerboard="0"
     inkscape:deskcolor="#d1d1d1"
     showgrid="false"
     inkscape:zoom="1.4142136"
     inkscape:cx="231.57747"
     inkscape:cy="-166.8772"
     inkscape:window-width="3840"
     inkscape:window-height="2054"
     inkscape:window-x="2549"
     inkscape:window-y="-11"
     inkscape:window-maximized="1"
     inkscape:current-layer="svg12" />
  <rect
     x="1.5052814"
     y="1.1413236"
     width="17.253906"
     height="1.1861763"
     id="rect12"
     style="fill:#ffffff;stroke-width:0.296988;opacity:0.50140845" />
  <path
     id="path16"
     style="opacity:0.501408;fill:#ffffff;stroke-width:0.296988"
     d="m 1.505859,8.529297 v 1.185547 c 3.7682182,0 4.343958,1.640345 4.343958,4.392938 l 0.002,0.002 v 4.615234 h 1.185546 v -4.613281 c 0,-3.206556 -0.8386998,-5.582438 -5.531504,-5.582438 z"
     sodipodi:nodetypes="cccccccc" />
  <path
     id="path20"
     style="fill:#ffffff;stroke-width:0.296988"
     d="m 1.5058594,2.8066406 v 5.2441406 c 5.068895,0.1407794 6.0097758,2.0432548 6.0097758,6.0549348 v 0.002 0.002 4.617187 H 8.0390727 L 9.191162,15.56495 13.164155,11.798805 C 14.031742,8.5385324 14.89556,8.0508338 18.762243,8.0508338 V 2.8066406 Z M 2.453125,5.1289062 h 1.9394531 c 0.1784191,0 0.3242188,0.1438466 0.3242188,0.3222657 0,0.1784183 -0.1457997,0.3242187 -0.3242188,0.3242187 H 2.453125 c -0.1784187,0 -0.3222656,-0.1458004 -0.3222656,-0.3242187 0,-0.1784191 0.1438469,-0.3222657 0.3222656,-0.3222657 z m 4.5253906,0 h 1.9394532 c 0.1784192,0 0.3242187,0.1438466 0.3242187,0.3222657 0,0.1784183 -0.1457995,0.3242187 -0.3242187,0.3242187 H 6.9785156 c -0.1784175,0 -0.3222656,-0.1458004 -0.3222656,-0.3242187 0,-0.1784191 0.1438481,-0.3222657 0.3222656,-0.3222657 z m 4.5253904,0 h 1.939453 c 0.17842,0 0.324219,0.1438466 0.324219,0.3222657 0,0.1784183 -0.145798,0.3242187 -0.324219,0.3242187 h -1.939453 c -0.178418,0 -0.322265,-0.1458004 -0.322265,-0.3242187 0,-0.1784191 0.143846,-0.3222657 0.322265,-0.3222657 z m 4.525391,0 h 1.939453 c 0.178419,0 0.322266,0.1438466 0.322266,0.3222657 0,0.1784183 -0.143847,0.3242187 -0.322266,0.3242187 h -1.939453 c -0.178419,0 -0.322266,-0.1458004 -0.322266,-0.3242187 0,-0.1784191 0.143846,-0.3222657 0.322266,-0.3222657 z m -5.814453,1.5542112 c 0.178419,0 0.322265,0.1458002 0.322265,0.3242188 v 1.939453 c 0,0.178419 -0.143846,0.322266 -0.322265,0.322266 -0.178419,0 -0.324219,-0.143847 -0.324219,-0.322266 v -1.939453 c 0,-0.1784186 0.1458,-0.3242188 0.324219,-0.3242188 z m 0,4.5253906 c 0.178419,0 0.322265,0.1458 0.322265,0.324219 v 1.939453 c 0,0.178419 -0.143846,0.322265 -0.322265,0.322265 -0.178419,0 -0.324219,-0.143846 -0.324219,-0.322265 v -1.939453 c 0,-0.17842 0.1458,-0.324219 0.324219,-0.324219 z"
     sodipodi:nodetypes="ccccccccccccssssssssssssssssssssssssssssssssssssssssss" />
  <path
     d="m 19.9441,11.034465 -2.027867,-2.0278521 -6.563859,6.5638361 2.027852,2.027845 z"
     fill="#ffffff"
     id="path2492"
     style="fill:#ffffff;stroke-width:0.754696" />
  <path
     d="m 9.3684,19.618387 0.981104,-3.018782 2.037678,2.037678 z"
     fill="#ffffff"
     id="path2494"
     style="fill:#ffffff;stroke-width:0.754696" />
</svg>
