<?xml version="1.0" encoding="UTF-8" standalone="no"?>
<svg
   viewBox="0 0 100 100"
   fill="none"
   x="0px"
   y="0px"
   version="1.1"
   id="svg2"
   sodipodi:docname="YouTube.svg"
   width="100"
   height="100"
   inkscape:version="1.4.2 (f4327f4, 2025-05-13)"
   xmlns:inkscape="http://www.inkscape.org/namespaces/inkscape"
   xmlns:sodipodi="http://sodipodi.sourceforge.net/DTD/sodipodi-0.dtd"
   xmlns="http://www.w3.org/2000/svg"
   xmlns:svg="http://www.w3.org/2000/svg">
  <defs
     id="defs2" />
  <sodipodi:namedview
     id="namedview2"
     pagecolor="#ffffff"
     bordercolor="#000000"
     borderopacity="0.25"
     inkscape:showpageshadow="2"
     inkscape:pageopacity="0.0"
     inkscape:pagecheckerboard="0"
     inkscape:deskcolor="#d1d1d1"
     inkscape:zoom="7.092"
     inkscape:cx="38.282572"
     inkscape:cy="54.216018"
     inkscape:window-width="3840"
     inkscape:window-height="2054"
     inkscape:window-x="2549"
     inkscape:window-y="-11"
     inkscape:window-maximized="1"
     inkscape:current-layer="svg2" />
  <path
     fill-rule="evenodd"
     clip-rule="evenodd"
     d="M 18.1152,19.1673 C 11.1476,19.7147 5.88113,25.3804 5.54195,32.3612 5.2625,38.1129 5,44.7316 5,49.3006 5,53.9219 5.26854,60.6401 5.55155,66.4372 5.888,73.3287 11.0339,78.9567 17.9044,79.591 25.5099,80.2933 36.5142,81 50,81 63.4507,81 74.4329,80.2969 82.0362,79.5965 88.9333,78.9611 94.0894,73.2967 94.4213,66.3783 94.714,60.2748 95,53.2911 95,49.3006 95,45.353 94.7201,38.4759 94.4307,32.4196 94.0958,25.4118 88.821,19.7109 81.8267,19.1627 74.3405,18.576 63.5426,18 50,18 36.4223,18 25.6036,18.579 18.1152,19.1673 Z M 41,35.943 64.2,49.3006 41,62.6582 Z"
     fill="#000000"
     id="path1"
     style="fill:#ffffff" />
</svg>
